<?xml version="1.0" encoding="UTF-8"?>
<!DOCTYPE svg PUBLIC "-//W3C//DTD SVG 1.1//EN" "http://www.w3.org/Graphics/SVG/1.1/DTD/svg11.dtd">
<!-- Creator: CorelDRAW Home & Student X7 -->
<svg xmlns="http://www.w3.org/2000/svg" xml:space="preserve" width="440px" height="560px" version="1.1" style="shape-rendering:geometricPrecision; text-rendering:geometricPrecision; image-rendering:optimizeQuality; fill-rule:evenodd; clip-rule:evenodd"
viewBox="0 0 4730 6018"
 xmlns:xlink="http://www.w3.org/1999/xlink"
 enable-background="new 0 0 100 100">
 <defs>
  <style type="text/css">
   <![CDATA[
    .fil0 {fill:black}
   ]]>
  </style>
 </defs>
 <g id="Layer_x0020_1">
  <metadata id="CorelCorpID_0Corel-Layer"/>
  <g id="_610692472">
   <path class="fil0" d="M4730 1858c0,-785 -348,-1403 -955,-1697 -405,-195 -864,-210 -1287,-59 0,0 -116,44 -215,44 -107,0 -229,2 -420,175 -185,167 -213,269 -232,396 -12,78 -23,152 -138,292 -54,66 -58,159 -10,243 53,94 179,184 340,184 22,0 45,-2 69,-5 162,-25 272,-114 390,-208 73,-58 148,-118 247,-175 130,-75 182,-185 196,-288 264,-86 535,-63 770,73 335,192 535,576 535,1025 0,929 -1003,1430 -1508,1624 82,-102 174,-199 281,-285 7,-6 12,-13 18,-20 356,-311 581,-767 581,-1276 0,-109 -11,-219 -32,-327 -9,-48 -52,-83 -100,-83l-3128 0c-49,0 -91,35 -100,83 -21,108 -32,218 -32,327 0,513 230,974 591,1285 4,4 7,8 11,11 302,245 496,568 621,883 -97,82 -265,256 -265,478 0,286 210,449 493,577 8,116 9,211 9,276l-39 0c-278,0 -504,226 -504,504 0,57 46,103 102,103l1353 0c57,0 103,-46 103,-103 0,-278 -226,-504 -504,-504l-36 0c-1,-25 0,-56 0,-90 365,131 761,287 999,581 20,24 49,37 79,37 16,0 32,-3 47,-11 43,-22 65,-71 52,-118 -153,-561 -713,-857 -1126,-1040 31,-190 80,-403 158,-616 391,-75 2586,-571 2586,-2296zm-505 0c0,-523 -239,-973 -638,-1203 -274,-157 -586,-191 -891,-104 -2,-6 -4,-12 -6,-18 -21,-52 -79,-78 -132,-58 -52,20 -79,79 -59,132 7,18 62,180 -82,264 -113,65 -198,133 -273,192 -108,87 -186,149 -294,165 -64,10 -130,-7 -174,-47 -25,-21 -33,-42 -35,-42 150,-184 168,-299 182,-391 13,-84 22,-144 167,-275 134,-121 197,-123 285,-123 115,0 219,-33 259,-48 378,-142 790,-131 1152,43 533,258 839,810 839,1513 0,1429 -1712,1937 -2286,2067 25,-54 53,-108 83,-161 288,-84 1903,-610 1903,-1906zm-4020 43c0,-68 4,-137 14,-205l2954 0c9,68 14,137 14,205 0,10 0,20 -1,29l-2981 0c0,-9 0,-19 0,-29zm18 234l2946 0c-113,711 -730,1257 -1473,1257 -743,0 -1360,-546 -1473,-1257zm1748 3481c129,0 239,82 281,197l-1113 0c42,-115 153,-197 282,-197l550 0zm-241 -205l-65 0c0,-49 -1,-113 -4,-190 24,9 48,18 72,27 -3,65 -3,120 -3,163zm877 -26c-218,-119 -456,-204 -679,-284 -475,-170 -766,-288 -766,-543 0,-101 68,-198 135,-268 40,126 69,247 91,358 1,6 3,12 5,18 34,86 144,133 362,226 244,105 595,255 852,493zm-815 -699c-85,-37 -176,-78 -208,-102 -36,-175 -82,-340 -139,-496 -1,-6 -4,-12 -6,-17 -77,-207 -173,-396 -286,-564 171,58 353,90 543,90 190,0 373,-32 544,-90 -255,381 -384,814 -448,1179z"/>
  </g>
 </g>
</svg>
