<?xml version="1.0" encoding="UTF-8" standalone="no"?>
<svg
   xmlns:dc="http://purl.org/dc/elements/1.1/"
   xmlns:cc="http://creativecommons.org/ns#"
   xmlns:rdf="http://www.w3.org/1999/02/22-rdf-syntax-ns#"
   xmlns:svg="http://www.w3.org/2000/svg"
   xmlns="http://www.w3.org/2000/svg"
   xmlns:sodipodi="http://sodipodi.sourceforge.net/DTD/sodipodi-0.dtd"
   xmlns:inkscape="http://www.inkscape.org/namespaces/inkscape"
   inkscape:export-ydpi="96"
   inkscape:export-xdpi="96"
   inkscape:export-filename="/Users/nbigaouette/projects/pycors/logo.png"
   sodipodi:docname="logo.svg"
   inkscape:version="1.0beta2 (2b71d25, 2019-12-03)"
   id="svg35"
   version="1.1"
   viewBox="0 0 231.42119 281.02982"
   height="281.02982mm"
   width="231.42119mm">
  <defs
     id="defs29" />
  <sodipodi:namedview
     inkscape:window-maximized="0"
     inkscape:window-y="23"
     inkscape:window-x="0"
     inkscape:window-height="1005"
     inkscape:window-width="1680"
     fit-margin-bottom="0"
     fit-margin-right="0"
     fit-margin-left="0"
     fit-margin-top="0"
     showgrid="false"
     inkscape:document-rotation="0"
     inkscape:current-layer="layer1"
     inkscape:document-units="mm"
     inkscape:cy="531.07997"
     inkscape:cx="437.33138"
     inkscape:zoom="0.75035781"
     inkscape:pageshadow="2"
     inkscape:pageopacity="0.0"
     borderopacity="1.0"
     bordercolor="#666666"
     pagecolor="#ffffff"
     id="base" />
  <metadata
     id="metadata32">
    <rdf:RDF>
      <cc:Work
         rdf:about="">
        <dc:format>image/svg+xml</dc:format>
        <dc:type
           rdf:resource="http://purl.org/dc/dcmitype/StillImage" />
        <dc:title></dc:title>
      </cc:Work>
    </rdf:RDF>
  </metadata>
  <g
     transform="translate(267.34184,30.069995)"
     id="layer1"
     inkscape:groupmode="layer"
     inkscape:label="Layer 1">
    <path
       inkscape:connector-curvature="0"
       id="path103"
       d="m -210.60389,250.75885 c -2.34865,-0.84286 -3.33123,-2.37831 -3.32991,-5.20358 0.002,-4.33792 1.65209,-9.24417 4.40939,-13.11074 1.95445,-2.74072 5.47463,-5.76778 8.46629,-7.2803 2.84022,-1.43594 6.52043,-2.3445 10.16375,-2.50918 l 2.34687,-0.10608 -0.0788,-1.6047 c -0.0433,-0.88258 -0.11891,-3.39295 -0.16793,-5.57858 -0.049,-2.18565 -0.14052,-4.34882 -0.20332,-4.80702 l -0.11419,-0.83309 -2.6659,-1.30797 c -11.5692,-5.67616 -17.56041,-11.77784 -19.65216,-20.01452 -0.44248,-1.74231 -0.47463,-2.12202 -0.46467,-5.48781 0.01,-3.31717 0.0484,-3.75567 0.46709,-5.30667 1.4196,-5.25883 4.13374,-9.6479 8.9492,-14.47185 l 2.75214,-2.75699 -3.00706,-6.06245 c -3.30133,-6.65572 -5.81124,-11.91784 -7.56106,-15.85204 l -1.13756,-2.55764 -0.82148,-0.11925 c -1.81433,-0.26338 -2.18903,-0.87755 -2.80644,-4.60003 -0.2614,-1.57599 -0.6015,-3.55991 -0.75579,-4.40871 l -0.28052,-1.54326 -0.91924,-0.52594 -0.91924,-0.52593 -4.12956,1.84865 c -4.54403,2.03419 -5.10294,2.16526 -6.17604,1.44839 -1.18476,-0.79148 -1.233,-1.06344 -1.10252,-6.21493 l 0.11617,-4.58685 -0.82671,-0.67743 -0.82671,-0.67743 -4.27146,0.9898 c -2.34929,0.54439 -4.50957,0.98817 -4.80061,0.98619 -1.16961,-0.008 -2.37932,-1.27055 -2.38059,-2.48459 -3.6e-4,-0.34661 0.43689,-2.51722 0.97169,-4.82357 l 0.97235,-4.19336 -0.73675,-0.87996 -0.73674,-0.87997 -1.16165,0.10226 c -0.63891,0.0562 -2.74915,0.12252 -4.68943,0.14728 -3.44674,0.044 -3.541,0.0356 -4.1037,-0.36575 -0.31676,-0.22593 -0.69379,-0.63871 -0.83785,-0.91728 -0.55051,-1.06459 -0.36486,-1.78 1.5698,-6.04921 l 1.8244,-4.02589 -0.51157,-0.9445 c -0.38331,-0.70772 -0.63686,-0.97201 -1.01137,-1.05427 -0.2749,-0.0604 -2.28889,-0.4094 -4.47553,-0.77561 -2.49721,-0.41822 -4.14878,-0.77922 -4.44108,-0.97074 -1.05592,-0.69187 -1.45548,-2.18984 -0.88063,-3.30148 0.15039,-0.29083 1.36521,-2.05299 2.69959,-3.91592 l 2.42616,-3.38714 -0.31174,-1.05831 -0.31174,-1.05832 -4.19584,-1.581 c -4.52206,-1.70393 -4.97634,-1.97843 -5.35263,-3.2344 -0.39318,-1.31231 -0.0215,-1.88404 3.14001,-4.82973 4.10039,-3.82051 3.81001,-3.44864 3.66545,-4.69416 l -0.122,-1.05114 -3.84378,-2.40045 c -2.11408,-1.32025 -3.97877,-2.60647 -4.14375,-2.85827 -0.67337,-1.0277 -0.5034,-2.45296 0.39237,-3.29008 0.26454,-0.24722 1.98912,-1.38348 3.83238,-2.52502 1.84326,-1.14154 3.44998,-2.16503 3.57048,-2.27443 0.1205,-0.1094 0.26542,-0.67295 0.32203,-1.25234 l 0.10294,-1.05342 -3.36048,-3.14033 c -3.68666,-3.445136 -3.93165,-3.803667 -3.555,-5.202449 0.29067,-1.079458 0.96021,-1.547091 3.72871,-2.60428 1.39849,-0.534029 3.27094,-1.249969 4.16099,-1.590975 l 1.61829,-0.620012 0.34873,-1.032651 0.34873,-1.032651 -2.55377,-3.568942 c -1.40458,-1.962919 -2.62709,-3.76174 -2.71668,-3.99738 -0.42083,-1.106886 0.0546,-2.528475 1.03903,-3.106582 0.54456,-0.319804 8.77444,-1.850309 10.8196,-2.012113 1.2618,-0.09983 4.42207,0.21344 5.84887,0.579778 0.60028,0.154124 1.60153,0.529998 2.225,0.835274 2.0827,1.019775 2.37015,1.438289 6.23065,9.071547 3.44378,6.809271 3.48367,6.901023 3.48196,8.00983 -0.002,1.402047 -0.53618,2.625316 -1.54187,3.531886 -0.42279,0.38112 -2.58749,1.58877 -5.27525,2.94296 -2.50703,1.26315 -5.07418,2.57783 -5.70477,2.92153 l -1.14652,0.62491 65.35208,8.8e-4 65.35208,8.8e-4 -5.90903,-3.01039 c -3.29822,-1.6803 -6.16914,-3.25709 -6.49775,-3.568749 -1.01911,-0.966553 -1.34514,-1.784348 -1.34776,-3.380581 l -0.002,-1.411111 3.59642,-6.967362 c 1.97803,-3.832049 3.69723,-7.114119 3.82045,-7.29349 0.89532,-1.303355 4.77876,-2.310499 9.68388,-2.511447 2.32466,-0.09523 2.7326,-0.05847 6.6354,0.597959 2.28716,0.384688 4.41395,0.831545 4.72621,0.993018 0.76551,0.395861 1.25622,1.248523 1.25703,2.184236 0,0.968869 0.0325,0.913462 -2.77162,4.851834 -1.30012,1.826014 -2.40376,3.424055 -2.45256,3.551199 -0.12571,0.327618 0.43523,2.164754 0.69074,2.262216 0.11691,0.0446 1.95882,0.738242 4.09312,1.541436 2.13431,0.803194 4.09267,1.608272 4.35189,1.789063 0.64241,0.448018 1.10568,1.703369 0.94682,2.565603 -0.12901,0.700245 -1.09404,1.738316 -5.25847,5.656526 l -1.72365,1.62174 0.13615,1.07252 0.13615,1.07253 3.86941,2.4321 c 4.19008,2.63367 4.50907,2.94147 4.50907,4.35114 0,1.41445 -0.26716,1.62782 -8.22138,6.56603 -0.10762,0.0668 -0.24887,0.60349 -0.3139,1.19261 l -0.11821,1.07113 3.25482,3.04363 c 1.90856,1.78472 3.37811,3.30346 3.55291,3.67183 0.533,1.12319 0.10113,2.54381 -0.97162,3.19619 -0.27783,0.16895 -2.28929,0.97876 -4.46992,1.79956 l -3.96477,1.49237 -0.28299,0.89744 c -0.15565,0.4936 -0.283,0.99301 -0.283,1.10982 0,0.1168 1.19062,1.88305 2.64583,3.92499 2.50181,3.51054 2.6458,3.75737 2.64518,4.53463 0,0.96856 -0.46146,1.82567 -1.23368,2.29529 -0.3442,0.20931 -1.94826,0.55645 -4.54363,0.98329 -2.20639,0.36286 -4.1842,0.69989 -4.39512,0.74895 -0.23998,0.0558 -0.56763,0.44087 -0.8755,1.02889 l -0.49199,0.9397 1.78979,4.02752 c 0.98439,2.21514 1.83888,4.20222 1.89887,4.41573 0.27478,0.97798 -0.6004,2.43753 -1.7138,2.85812 -0.32569,0.12303 -1.92519,0.13037 -4.93889,0.0226 l -4.4572,-0.15932 -0.58013,0.65004 c -0.31906,0.35752 -0.64438,0.76911 -0.72292,0.91463 -0.0867,0.1607 0.22399,1.82278 0.79143,4.23333 1.09144,4.63661 1.16172,5.54523 0.49061,6.3428 -0.56063,0.66627 -1.29149,1.06513 -1.95461,1.06671 -0.2716,7e-4 -2.41176,-0.44564 -4.75591,-0.99174 l -4.26209,-0.99292 -0.82417,0.68306 -0.82416,0.68306 0.11485,4.67431 c 0.111,4.51722 0.10267,4.69362 -0.2479,5.24918 -0.19951,0.31618 -0.62144,0.7326 -0.93762,0.92538 -1.05339,0.64226 -1.65653,0.4942 -6.04294,-1.4834 l -4.05694,-1.82907 -0.98456,0.49679 -0.98455,0.49679 -0.53172,3.20339 c -0.36304,2.18725 -0.47038,3.22222 -0.33836,3.26274 0.10635,0.0327 1.10617,0.23579 2.22183,0.45144 l 2.02847,0.39209 3.175,-1.28502 c 7.13671,-2.88846 15.09708,-6.73622 21.32226,-10.30644 23.50807,-13.48216 38.23363,-29.74847 43.60644,-48.16901 2.62137,-8.98727 2.98577,-19.20956 1.03533,-29.04302 -1.60015,-8.067463 -4.77183,-15.549647 -9.22272,-21.756986 -3.18449,-4.441183 -7.4694,-8.617564 -11.84413,-11.544147 -7.79547,-5.2149735 -16.04277,-7.6136325 -25.31801,-7.3635365 -4.48637,0.120969 -7.9816,0.66726 -12.09519,1.890431 l -1.15908,0.344649 -0.44842,1.809913 c -1.21541,4.9055215 -3.70547,8.3979705 -7.89296,11.0703295 -5.12293,3.269326 -7.93808,5.254368 -12.24532,8.634501 -6.75327,5.299668 -8.95786,6.732346 -12.6375,8.212621 -2.96238,1.191724 -5.08941,1.67186 -7.95797,1.79635 -5.7991,0.25167 -10.55551,-1.528357 -14.45517,-5.409667 -2.43949,-2.428006 -3.76273,-5.120748 -3.98349,-8.106268 -0.18942,-2.561604 0.49941,-4.390801 2.7562,-7.319144 3.59897,-4.669919 4.72933,-7.1575785 5.63587,-12.4032715 0.8362,-4.838694 1.49073,-6.938329 2.95593,-9.482206 3.23552,-5.6174855 10.84515,-12.6137035 16.68524,-15.3402505 3.14734,-1.469389 4.74825,-1.812569 9.47589,-2.031303 5.0997,-0.235948 6.35542,-0.485136 12.43541,-2.467722 6.38454,-2.081893 11.69738,-3.261768 17.99167,-3.995588 3.70086,-0.431465 12.34875,-0.435491 16.05139,-0.0075 10.90498,1.260593 20.41468,4.317654 29.75331,9.564719 2.44798,1.375441 7.32402,4.697863 9.84599,6.708838 3.03058,2.416526 8.72563,8.1116825 11.14358,11.1438215 9.03402,11.32869 14.82641,24.7343175 17.43008,40.3393775 1.03098,6.179119 1.43415,11.235059 1.4493,18.174469 0.0228,10.46325 -1.19697,18.35314 -4.26775,27.60486 -6.15791,18.55275 -19.0105,34.78218 -38.31459,48.38115 -15.05511,10.60574 -33.83107,19.42738 -55.26214,25.96422 -6.61993,2.01919 -13.8224,3.89039 -19.64659,5.10421 -1.68632,0.35144 -3.13187,0.67968 -3.21234,0.72941 -0.2136,0.13202 -2.64355,7.62185 -3.57919,11.03215 -1.34134,4.88904 -3.21149,13.38938 -3.7215,16.91526 l -0.11481,0.79375 2.70179,1.22115 c 15.41391,6.9668 26.54739,14.15435 34.98751,22.58724 6.81357,6.80773 11.30141,13.88149 14.15886,22.3173 0.6639,1.95998 0.80846,2.61529 0.81713,3.70417 0.009,1.16145 -0.0559,1.44133 -0.53348,2.29306 -0.9295,1.65759 -2.74159,2.60538 -4.61444,2.41351 -1.52168,-0.15589 -2.40886,-0.72792 -4.01675,-2.5899 -7.58496,-8.78361 -18.33969,-15.55574 -35.38788,-22.28334 -4.38043,-1.72862 -10.04988,-3.82222 -10.35053,-3.82222 -0.14742,0 -0.20792,0.58233 -0.20792,2.00122 v 2.00124 l 2.24896,0.10913 c 6.26809,0.30422 11.34537,2.40459 15.61246,6.4586 4.576,4.3475 7.35872,10.55822 7.36148,16.42999 0.001,2.51064 -0.684,3.8413 -2.49422,4.84394 l -0.94466,0.52324 -32.63194,0.0373 c -26.38118,0.0302 -32.75418,-0.007 -33.27007,-0.19168 z m 58.83571,-9.67933 c -0.40582,-1.31247 -1.85304,-3.49334 -3.19384,-4.81289 -1.85492,-1.82552 -4.41909,-3.21585 -7.02597,-3.8096 -0.84899,-0.19337 -3.95425,-0.24105 -15.69861,-0.24105 -13.74541,0 -14.71574,0.0202 -15.875,0.32997 -4.30363,1.15013 -7.49734,3.66681 -9.36855,7.38256 -0.32858,0.65247 -0.59742,1.26766 -0.59742,1.36709 0,0.12264 8.3434,0.1808 25.94105,0.1808 h 25.94106 z m -24.20215,-22.225 c 0.0483,-2.06154 0.0626,-3.77763 0.0318,-3.81353 -0.0308,-0.0359 -0.75416,-0.32861 -1.60756,-0.65048 l -1.55163,-0.58523 -0.0622,0.4741 c -0.0342,0.26076 -0.005,2.24019 0.0637,4.39875 l 0.12589,3.92465 h 1.45608 1.45609 z m 39.64693,1.42972 c -2.49184,-2.28963 -7.13255,-5.7225 -11.2007,-8.28546 -6.80734,-4.28867 -13.69575,-7.71513 -27.69305,-13.77515 -10.08268,-4.36521 -12.90558,-5.87904 -14.86108,-7.96948 -1.3539,-1.44732 -1.66458,-2.15557 -2.33287,-5.31831 -1.01206,-4.78972 -3.48539,-14.20383 -3.81948,-14.53792 -0.11277,-0.11277 -1.40304,1.36006 -2.7584,3.1487 -1.23763,1.63325 -2.63588,4.4063 -3.12126,6.19012 -0.25561,0.93943 -0.359,1.85833 -0.359,3.19087 0,6.67518 4.17938,11.59491 14.04709,16.53549 4.98458,2.49568 10.40261,4.64575 24.75847,9.82504 11.64193,4.20015 18.62004,7.07351 24.95903,10.2773 1.74625,0.88258 3.21468,1.60593 3.26319,1.60745 0.0485,0.002 -0.34837,-0.39836 -0.88194,-0.88865 z m -36.35495,-33.88528 c 0.68413,-4.03175 2.59782,-13.46214 3.5526,-17.50659 3.47655,-14.72677 8.10874,-27.03862 13.56711,-36.05994 l 1.11359,-1.84048 -0.38169,-0.30908 c -0.35318,-0.28599 -0.45043,-0.28902 -1.30202,-0.0406 -0.50619,0.14768 -1.01031,0.36092 -1.12027,0.47387 -0.10996,0.11295 -0.88856,2.02992 -1.73022,4.25994 -0.84166,2.23002 -1.66432,4.20268 -1.82813,4.38369 -0.7709,0.85184 -2.33416,1.08707 -3.29727,0.49617 -0.29104,-0.17857 -1.83886,-1.73282 -3.43959,-3.45389 l -2.91041,-3.12922 -1.11231,0.0836 c -0.61177,0.046 -1.13399,0.11226 -1.16048,0.14725 -0.0265,0.035 -1.09829,1.74826 -2.38177,3.80727 -1.28349,2.05902 -2.55556,3.90171 -2.82684,4.09488 -0.8028,0.57164 -1.74092,0.62591 -2.64578,0.15305 -0.69571,-0.36357 -1.02022,-0.79164 -3.04962,-4.02284 -1.24908,-1.98878 -2.33418,-3.72152 -2.41133,-3.85053 -0.0799,-0.13367 -0.60134,-0.27637 -1.21213,-0.33176 l -1.07186,-0.0972 -1.64011,1.74287 c -0.90206,0.95857 -2.40175,2.51677 -3.33265,3.46266 l -1.69254,1.71979 -0.96046,-7.1e-4 c -1.18967,-8.8e-4 -1.96766,-0.43742 -2.42239,-1.35943 -0.1813,-0.36761 -0.95841,-2.35326 -1.72691,-4.41255 l -1.39727,-3.74413 -1.05114,-0.35777 c -0.86472,-0.29431 -1.09197,-0.31692 -1.2814,-0.12749 -0.18943,0.18943 -0.0151,0.58843 0.98325,2.24985 3.05688,5.08736 6.27375,11.6616 8.80976,18.00429 0.68354,1.70957 2.03481,4.68614 3.00282,6.61458 1.16689,2.32465 2.0976,4.4871 2.76174,6.41669 1.44448,4.19686 3.43998,11.27559 4.50003,15.9632 0.72753,3.21721 0.99611,4.12568 1.29757,4.38899 0.53147,0.46424 8.72012,4.43125 9.30057,4.5057 0.0555,0.007 0.27944,-1.03877 0.49755,-2.32421 z m 25.33601,-34.35925 c 23.27393,-5.86719 44.52916,-14.89329 60.72608,-25.78753 12.42951,-8.36024 22.04048,-17.72435 28.83228,-28.09176 6.58499,-10.05169 10.38956,-20.46381 11.89144,-32.54375 0.39994,-3.21679 0.45589,-14.57397 0.0904,-18.34445 -1.69016,-17.435101 -7.09332,-31.784036 -16.37254,-43.4798625 -1.88611,-2.377297 -7.48707,-8.006918 -9.77556,-9.825562 -16.83955,-13.3822785 -38.12889,-17.7811525 -59.43425,-12.2804985 -1.11566,0.288043 -3.89379,1.149824 -6.17362,1.915069 -5.74998,1.930036 -9.64014,2.633307 -14.62179,2.64336 -3.74156,0.0075 -6.63846,1.342539 -10.93041,5.0370975 -3.4589,2.977451 -5.82468,5.69087 -6.98605,8.01261702 -0.80262,1.604548 -1.09188,2.58285598 -1.51249,5.11527798 -0.58087,3.497397 -1.0373,5.431506 -1.70665,7.2319455 -1.17563,3.162207 -2.85268,6.120492 -5.35081,9.438737 -1.06594,1.415885 -1.38774,1.968469 -1.30258,2.23677 0.20701,0.652237 2.12664,2.353958 3.31574,2.939349 2.88037,1.418 5.96824,1.406129 9.81449,-0.03773 2.68634,-1.008437 4.34985,-2.141432 12.6118,-8.589737 3.03493,-2.368702 7.02549,-5.13369 10.05417,-6.966355 4.48813,-2.7157755 5.82383,-6.7750515 4.10954,-12.4891115 -0.46505,-1.550094 -0.35937,-2.781645 0.34733,-4.047794 1.2533,-2.245443 4.09785,-3.028991 6.41761,-1.76777 0.78028,0.424226 1.78845,1.467801 2.01498,2.085722 0.0356,0.09701 0.14166,0.387413 0.23578,0.645331 l 0.17113,0.468942 1.64209,-0.416329 c 5.13186,-1.301105 9.29423,-1.747697 15.08808,-1.618837 4.36013,0.09697 6.25423,0.311541 9.92554,1.124392 22.44678,4.96986002 39.31469,23.8758855 43.64705,48.9208065 0.79812,4.6139 1.04154,7.63467 1.04473,12.96459 0.003,5.15832 -0.22296,8.00648 -0.96331,12.13823 -3.34838,18.68645 -14.23549,35.21456 -32.61597,49.51544 -13.12153,10.20917 -31.24531,19.59094 -49.74166,25.74876 -2.27983,0.759 -4.46953,1.46556 -4.86601,1.57012 l -0.72086,0.19013 -1.89252,3.70512 c -1.55111,3.03673 -1.83376,3.70512 -1.56682,3.70512 0.17913,0 2.22828,-0.47964 4.55366,-1.06585 z m -24.25884,-30.94411 c 4.72401,-0.57685 9.5398,-1.67653 13.93472,-3.18197 2.79095,-0.95601 6.17361,-2.35283 6.17361,-2.5493 0,-0.0755 0.51773,-3.38047 1.15051,-7.34433 0.8056,-5.04645 1.25972,-7.43261 1.51481,-7.95956 0.71428,-1.47549 2.48405,-2.53091 4.20117,-2.50541 0.44354,0.007 3.90205,0.51308 7.6856,1.12554 l 6.87916,1.11357 0.94851,-0.98152 c 2.05576,-2.12729 5.09935,-6.26391 7.29339,-9.91262 3.05379,-5.0785 5.69213,-11.21656 7.11525,-16.55354 0.24972,-0.93649 0.49359,-1.84162 0.54193,-2.01139 0.0836,-0.29358 -3.1082,-0.30868 -65.26371,-0.30868 h -65.3516 l 0.51257,1.91308 c 1.3144,4.90587 3.63444,10.62169 6.08614,14.99429 2.43586,4.34437 5.99201,9.36005 8.50739,11.99907 l 0.83236,0.87326 6.96736,-1.13585 c 7.89678,-1.28737 8.65127,-1.32365 10.01341,-0.4815 0.95257,0.58893 1.89341,1.74285 2.1353,2.61892 0.0926,0.33542 0.66651,3.77768 1.27532,7.64947 l 1.10694,7.0396 1.77444,0.75189 c 6.65264,2.81895 13.41585,4.4374 21.6182,5.17328 1.86772,0.16757 10.08017,-0.0495 12.34722,-0.3263 z m -45.44012,-7.50883 c 3.47599,-1.30053 4.44536,-5.9087 1.79952,-8.55454 -2.54965,-2.54965 -6.81641,-1.79646 -8.43531,1.48905 -0.57337,1.16364 -0.5641,3.30592 0.0191,4.42733 1.31137,2.52134 4.03084,3.60564 6.61664,2.63816 z m 78.7754,0.0802 c 0.71913,-0.21356 1.18182,-0.51834 1.94405,-1.28056 1.25589,-1.25589 1.66966,-2.34322 1.54619,-4.06312 -0.14159,-1.97241 -1.06963,-3.37007 -2.81771,-4.2436 -0.90315,-0.45131 -1.28628,-0.5394 -2.34601,-0.5394 -1.05972,0 -1.44285,0.0881 -2.346,0.5394 -1.78063,0.88979 -2.68656,2.27748 -2.81455,4.31129 -0.11114,1.76593 0.36497,2.95575 1.65427,4.1341 1.48439,1.35665 3.19026,1.73271 5.17976,1.14189 z m 25.81817,-54.17981 c 0.0601,-0.3638 0.11021,-1.3163 0.11127,-2.11666 l 0.002,-1.45521 h -67.11603 -67.11597 v 1.03246 c 0,0.56785 0.051,1.52035 0.11333,2.11666 l 0.11332,1.08421 h 66.89137 66.89138 z M -241.3789,38.443581 c 1.19762,-0.448088 2.57862,-1.878397 2.99581,-3.10277 0.62387,-1.830956 0.22815,-3.730987 -1.08009,-5.186072 -1.21962,-1.356507 -1.93188,-1.665406 -3.84008,-1.665406 -1.2964,0 -1.72065,0.071 -2.3136,0.387179 -1.18047,0.629465 -1.77845,1.234842 -2.35047,2.37956 -0.92861,1.858312 -0.69935,4.000201 0.61222,5.71976 1.24306,1.629732 3.83915,2.267327 5.97621,1.467749 z m 128.12325,-0.175454 c 1.93861,-0.968736 2.91872,-2.535594 2.91872,-4.666045 0,-2.138388 -1.04323,-3.79206 -2.96612,-4.701754 -1.90583,-0.901619 -4.08412,-0.605016 -5.64461,0.76859 -1.2549,1.104602 -1.74868,2.215236 -1.74868,3.933164 0,1.719132 0.49384,2.828607 1.75199,3.936076 1.01524,0.893649 1.95654,1.23557 3.45076,1.25347 0.95986,0.0115 1.34989,-0.07974 2.23794,-0.523501 z"
       style="fill:#000000;stroke-width:0.176389" />
  </g>
</svg>
